<svg xmlns="http://www.w3.org/2000/svg" viewBox="0 0 120 140">
<path d="M20 140 C22 112 38 102 60 102 C82 102 98 112 100 140 Z" fill="#d5dbdb"/>
<path d="M44 104 L60 122 L76 104 L60 112 Z" fill="#c0392b"/>
<circle cx="60" cy="63" r="25" fill="#f6cfa6"/>
<path d="M32 44 C36 22 52 14 64 16 C78 18 86 30 86 42 L88 47 H30 Z" fill="#707b7c"/>
<path d="M28 46 C48 41 76 41 92 46 L90 52 C74 47 48 47 30 52 Z" fill="#5d6d7e"/>
<circle cx="50" cy="66" r="3.4" fill="#20140a"/><circle cx="70" cy="66" r="3.4" fill="#20140a"/>
<path d="M44 58 Q50 55 56 58 M64 58 Q70 55 76 58" stroke="#5a3a1a" stroke-width="2.4" fill="none" stroke-linecap="round"/>
<path d="M50 77 Q60 88 70 77 Q60 81 50 77 Z" fill="#8c4a2f"/>
<path d="M53 79 Q60 82 67 79" stroke="#fff" stroke-width="2.4" fill="none"/>
<circle cx="44" cy="73" r="1.4" fill="#d39a6a"/><circle cx="49" cy="76" r="1.4" fill="#d39a6a"/><circle cx="76" cy="73" r="1.4" fill="#d39a6a"/>
</svg>
