<svg xmlns="http://www.w3.org/2000/svg" viewBox="0 0 120 140">
<path d="M18 140 C20 112 36 100 60 100 C84 100 100 112 102 140 Z" fill="#5d4023"/>
<path d="M36 106 L86 132" stroke="#8c5a2b" stroke-width="7"/>
<circle cx="60" cy="62" r="26" fill="#e8b88a"/>
<path d="M34 64 C30 78 30 90 34 100" stroke="#2e1d10" stroke-width="5" fill="none" stroke-linecap="round"/>
<path d="M86 64 C90 78 90 90 86 100" stroke="#2e1d10" stroke-width="5" fill="none" stroke-linecap="round"/>
<path d="M32 52 C32 30 45 16 60 16 C75 16 88 30 88 52 Z" fill="#6e4a2f"/>
<path d="M30 48 C44 40 76 40 90 48 L90 58 C76 50 44 50 30 58 Z" fill="#d9c7a8"/>
<circle cx="50" cy="66" r="3.2" fill="#2c1810"/><circle cx="70" cy="66" r="3.2" fill="#2c1810"/>
<path d="M43 58 H56 M64 58 H77" stroke="#3a2412" stroke-width="3" stroke-linecap="round"/>
<path d="M52 78 Q62 82 68 76" stroke="#a8693c" stroke-width="3" fill="none" stroke-linecap="round"/>
</svg>
