<svg xmlns="http://www.w3.org/2000/svg" viewBox="0 0 120 140">
<path d="M20 140 C22 112 38 102 60 102 C82 102 98 112 100 140 Z" fill="#117a65"/>
<path d="M60 104 V140" stroke="#0b5345" stroke-width="3"/>
<circle cx="48" cy="118" r="2.4" fill="#F39C12"/><circle cx="48" cy="128" r="2.4" fill="#F39C12"/>
<circle cx="60" cy="62" r="25" fill="#f0c8a0"/>
<ellipse cx="60" cy="34" rx="30" ry="15" fill="#f2efe6"/>
<ellipse cx="60" cy="29" rx="23" ry="11" fill="#fdfbf4"/>
<circle cx="60" cy="18" r="5" fill="#f2efe6"/>
<circle cx="50" cy="65" r="3.6" fill="#20140a"/><circle cx="70" cy="65" r="3.6" fill="#20140a"/>
<path d="M44 57 Q50 53 56 57 M64 57 Q70 53 76 57" stroke="#5a3a1a" stroke-width="2.4" fill="none" stroke-linecap="round"/>
<path d="M54 79 Q60 82 66 79" stroke="#c2713f" stroke-width="3" fill="none" stroke-linecap="round"/>
<circle cx="42" cy="73" r="4" fill="#e8a17a" opacity=".5"/><circle cx="78" cy="73" r="4" fill="#e8a17a" opacity=".5"/>
</svg>
