<svg xmlns="http://www.w3.org/2000/svg" viewBox="0 0 100 100"><path d="M50 90 V28 M50 28 L42 10 M50 24 L50 8 M50 28 L58 10" fill="none" stroke="#F5D76E" stroke-width="3.4" stroke-linecap="round"/><g fill="#F5D76E"><path d="M50 40 C40 38 34 31 35 23 C44 26 49 31 50 40 Z"/><path d="M50 40 C60 38 66 31 65 23 C56 26 51 31 50 40 Z"/><path d="M50 56 C40 54 34 47 35 39 C44 42 49 47 50 56 Z"/><path d="M50 56 C60 54 66 47 65 39 C56 42 51 47 50 56 Z"/><path d="M50 72 C40 70 34 63 35 55 C44 58 49 63 50 72 Z"/><path d="M50 72 C60 70 66 63 65 55 C56 58 51 63 50 72 Z"/></g></svg>
