<svg xmlns="http://www.w3.org/2000/svg" viewBox="0 0 100 100"><path d="M50 42 C46 32 38 27 31 30 C25 33 26 40 31 42 L38 43 C30 48 22 48 16 44 C18 54 27 58 35 56 C28 62 20 62 14 58 C18 68 29 72 39 68 L43 66 L43 77 C39 81 39 86 43 88 H57 C61 86 61 81 57 77 L57 66 L61 68 C71 72 82 68 86 58 C80 62 72 62 65 56 C73 58 82 54 84 44 C78 48 70 48 62 43 L69 42 C74 40 75 33 69 30 C62 27 54 32 50 42 Z" fill="none" stroke="#F5D76E" stroke-width="3.6" stroke-linejoin="round"/><circle cx="32" cy="34.5" r="1.8" fill="#F5D76E"/><circle cx="68" cy="34.5" r="1.8" fill="#F5D76E"/></svg>
