<svg xmlns="http://www.w3.org/2000/svg" viewBox="0 0 100 100"><g fill="#F5D76E"><rect x="46" y="10" width="8" height="11" rx="2"/><rect x="46" y="10" width="8" height="11" rx="2" transform="rotate(45 50 50)"/><rect x="46" y="10" width="8" height="11" rx="2" transform="rotate(90 50 50)"/><rect x="46" y="10" width="8" height="11" rx="2" transform="rotate(135 50 50)"/><rect x="46" y="10" width="8" height="11" rx="2" transform="rotate(180 50 50)"/><rect x="46" y="10" width="8" height="11" rx="2" transform="rotate(225 50 50)"/><rect x="46" y="10" width="8" height="11" rx="2" transform="rotate(270 50 50)"/><rect x="46" y="10" width="8" height="11" rx="2" transform="rotate(315 50 50)"/></g><circle cx="50" cy="50" r="29" fill="none" stroke="#F5D76E" stroke-width="5"/><path d="M55 33 A18 18 0 1 0 55 67 A14 14 0 1 1 55 33 Z" fill="#F5D76E"/></svg>
