<svg xmlns="http://www.w3.org/2000/svg" viewBox="0 0 100 100"><path d="M50 60 C41 52 37 40 40 24 C46 30 48 36 50 43 C52 36 54 30 60 24 C63 40 59 52 50 60 Z" fill="#F5D76E"/><path d="M50 58 C46.5 49 46.5 38 50 30 C53.5 38 53.5 49 50 58 Z" fill="none" stroke="#F5D76E" stroke-width="2.4"/><path d="M50 60 V88" stroke="#F5D76E" stroke-width="3.6" fill="none" stroke-linecap="round"/><path d="M50 76 C40 74 33 65 31 54 C42 58 48 65 50 76 Z" fill="#F5D76E"/><path d="M50 76 C60 74 67 65 69 54 C58 58 52 65 50 76 Z" fill="#F5D76E"/></svg>
