<svg xmlns="http://www.w3.org/2000/svg" viewBox="0 0 100 100"><g fill="none" stroke="#F5D76E" stroke-width="3.2" stroke-linejoin="round"><path d="M14 40 v-4 q9 -13 18 0 v4 Z"/><path d="M32 40 v-4 q9 -13 18 0 v4 Z"/><path d="M50 40 v-4 q9 -13 18 0 v4 Z"/><path d="M68 40 v-4 q9 -13 18 0 v4 Z"/><path d="M23 58 v-4 q9 -13 18 0 v4 Z"/><path d="M41 58 v-4 q9 -13 18 0 v4 Z"/><path d="M59 58 v-4 q9 -13 18 0 v4 Z"/><path d="M32 76 v-4 q9 -13 18 0 v4 Z"/><path d="M50 76 v-4 q9 -13 18 0 v4 Z"/><path d="M41 92 v-4 q9 -13 18 0 v4 Z"/><path d="M10 40 H90"/></g></svg>
